<svg width="192" height="192" viewBox="0 0 192 192" fill="none" xmlns="http://www.w3.org/2000/svg">
  <!-- Background circle -->
  <circle cx="96" cy="96" r="90" fill="#1E63D5"/>
  
  <!-- Shield with propane tank icon -->
  <g transform="translate(96, 80)">
    <!-- Outer yellow shield border -->
    <path d="M-25 -15 L-15 -20 L15 -20 L25 -15 L25 5 L20 15 L15 20 L-15 20 L-20 15 L-25 5 Z" 
          fill="#FFD700" stroke="#FFD700" stroke-width="2"/>
    
    <!-- Inner blue shield -->
    <path d="M-20 -12 L-12 -16 L12 -16 L20 -12 L20 2 L16 12 L12 16 L-12 16 L-16 12 L-20 2 Z" 
          fill="#FFFFFF"/>
    
    <!-- Propane tank inside shield -->
    <g transform="translate(0, -3)">
      <!-- Tank body -->
      <rect x="-5" y="0" width="10" height="6" fill="#1E63D5" rx="1"/>
      <!-- Tank top with valve -->
      <rect x="-4" y="-1.5" width="8" height="1.5" fill="#1E63D5" rx="0.5"/>
      <!-- Valve handle -->
      <rect x="-1" y="-2.5" width="2" height="1" fill="#1E63D5" rx="0.3"/>
      <!-- Tank base -->
      <rect x="-6" y="6" width="12" height="1.5" fill="#1E63D5" rx="0.7"/>
    </g>
  </g>
  
  <!-- TankLog Text -->
  <text x="96" y="130" font-family="system-ui, -apple-system, sans-serif" font-size="20" font-weight="600" fill="#FFFFFF" text-anchor="middle">
    TankLog
  </text>
</svg>